<svg xmlns="http://www.w3.org/2000/svg" xmlns:xlink="http://www.w3.org/1999/xlink" width='55' viewBox="0 0 100 125" 
version="1.1" x="0px" y="0px"><title></title>
<desc></desc><g stroke="none" stroke-width="1" fill="none" fill-rule="evenodd"><path d="M50.5,82 C49.6715729,82 49,81.3284271 49,80.5 C49,79.6715729 49.6715729,79 50.5,79 C66.2401154,79 79,66.2401154 79,50.5 C79,34.7598846 66.2401154,22 50.5,22 C34.7598846,22 22,34.7598846 22,50.5 C22,51.3284271 21.3284271,52 20.5,52 C19.6715729,52 19,51.3284271 19,50.5 C19,33.1030304 33.1030304,19 50.5,19 C67.8969696,19 82,33.1030304 82,50.5 C82,67.8969696 67.8969696,82 50.5,82 Z" fill="black" fill-rule="nonzero" transform="translate(50.500000, 50.500000) scale(-1, 1) translate(-50.500000, -50.500000) "/><path d="M50.5,82 L50.5,79 C54.3791627,79 58.375,66.2133206 58.375,50.5 C58.375,34.7866794 54.3791627,22 50.5,22 C46.6208373,22 42.625,34.7866794 42.625,50.5 L39.625,50.5 C39.625,33.0762357 44.0238236,19 50.5,19 C56.9761764,19 61.375,33.0762357 61.375,50.5 C61.375,67.9237643 56.9761764,82 50.5,82 Z" fill="black" fill-rule="nonzero" transform="translate(50.500000, 50.500000) scale(-1, 1) translate(-50.500000, -50.500000) "/><path d="M37.1540042,76.8183309 C36.7887793,77.5619049 35.8899203,77.8686175 35.1463463,77.5033926 C34.4027723,77.1381677 34.0960597,76.2393087 34.4612846,75.4957347 C36.9120754,70.5060845 38.5114967,61.830758 38.6475127,52.1808842 C38.6591883,51.3525393 39.3401594,50.6904981 40.1685042,50.7021737 C40.9968491,50.7138493 41.6588903,51.3948204 41.6472147,52.2231653 C41.5054671,62.2796841 39.8292053,71.3717961 37.1540042,76.8183309 Z" 
fill="black"  transform="translate(37.977337, 64.179696) scale(1, -1) rotate(90.000000) translate(-37.977337, -64.179696) "/>
<path d="M50.1891153,62.5040536 L47.4963956,61.1814573 C50.0681752,55.9454819 51.6921438,46.6874091 51.6921438,36.5129567 C51.6921438,26.7254242 50.1908681,17.773337 47.7706742,12.4263917 L50.5037411,11.1893206 C53.1228948,16.9758285 54.6921438,26.3332395 54.6921438,36.5129567 C54.6921438,47.1071028 52.9925127,56.7965193 50.1891153,62.5040536 Z" fill="black" fill-rule="nonzero" transform="translate(51.094270, 36.846687) rotate(90.000000) translate(-51.094270, -36.846687) "/><path d="M21.5,52 C20.6715729,52 20,51.3284271 20,50.5 C20,49.6715729 20.6715729,49 21.5,49 L80.4478138,49 C81.2762409,49 81.9478138,49.6715729 81.9478138,50.5 C81.9478138,51.3284271 81.2762409,52 80.4478138,52 L21.5,52 Z" fill="black" fill-rule="nonzero"/><path d="M59,60 L59,63 L84,63 L84,60 L59,60 Z M56,57 L87,57 L87,66 L56,66 L56,57 Z" fill="black" fill-rule="nonzero"/>
<path d="M60,66 L60,80 L83,80 L83,66 L60,66 Z M59,63 L84,63 C85.1045695,63 86,63.8954305 86,65 L86,81 C86,82.1045695 85.1045695,83 84,83 L59,83 C57.8954305,83 57,82.1045695 57,81 L57,65 C57,63.8954305 57.8954305,63 59,63 Z" fill="black" fill-rule="nonzero"/></g><text x="0" y="115" fill="black" font-size="5px" font-weight="bold" font-family="'Helvetica Neue', Helvetica, Arial-Unicode, Arial, Sans-serif"></text><text x="0" y="120" fill="black" font-size="5px" font-weight="bold" font-family="'Helvetica Neue', Helvetica, Arial-Unicode, Arial, Sans-serif"></text></svg>