<svg xmlns="http://www.w3.org/2000/svg" width='55'  data-name="Layer 1" viewBox="0 0 100 125" x="0px" y="0px">
<path d="M94.831,80.991h-1.82v-11.782c0-1.487-.51-2.797-1.516-3.893l-7.04-7.672c-1.12-1.22-2.587-1.865-4.243-1.865h-.272l-2.33-2.33c-.374-.374-.811-.641-1.291-.797V31.228c1.183-.18,2.093-1.201,2.093-2.434v-11.39c0-1.359-1.106-2.465-2.465-2.465h-.719L41.623,1.3c-.327-.133-.693-.133-1.019,0L6.997,14.94h-.719c-1.359,0-2.465,1.106-2.465,2.465v11.39c0,1.233,.91,2.254,2.093,2.434v37.653c0,.749,.607,1.355,1.355,
1.355h5.875c.749,0,1.355-.607,1.355-1.355V31.259h53.243v21.229h-3.66v-11.35c0-.749-.607-1.355-1.355-1.355h-4.025c-.749,
0-1.355,.607-1.355,1.355v5.496h-12.284c-.749,0-1.355,.607-1.355,1.355v2.952h-12.284c-.749,0-1.355,.607-1.355,1.355v12.284h-12.284c-.749,0-1.355,.607-1.355,
1.355v12.284h-5.047c-.749,0-1.355,.607-1.355,1.355v10.897c0,.749,.607,1.355,1.355,1.355h6.786c.649,3.948,4.084,6.97,8.213,6.97s7.563-3.022,8.213-6.97h33.275c.649,
3.948,4.084,6.97,8.213,6.97s7.563-3.022,8.213-6.97h7.668c2.335,0,4.234-1.899,4.234-4.234v-5.249c0-.749-.607-1.355-1.355-1.355Zm-18.759,1.158c-2.599,0-4.924,1.198-6.452,
3.071h-5.546v-26.731h16.138c.772,0,1.42,.239,1.974,.724h-11c-.749,0-1.355,.607-1.355,1.355v9.322c0,.749,.607,1.355,1.355,1.355h19.114v3.268h-2.646c-.749,0-1.355,.607-1.355,1.355v4.636c0,.749,.607,
1.355,1.355,1.355h2.646v.484s0,.001,0,.002v2.873h-7.777c-1.528-1.872-3.852-3.071-6.451-3.071Zm-41.775,5.782h33.848c-.124,.385-.22,.781-.287,1.188H34.584c-.067-.407-.163-.803-.287-1.188Zm56.003-8.781h-1.291v-1.925h1.291v1.925Zm-.07-10.615h-17.688v-6.611h12.162l4.794,5.224c.387,.421,.624,.873,.732,
1.387ZM41.114,4.019l26.908,10.92H14.206L41.114,4.019ZM6.524,17.651H75.703v10.898H6.524v-10.898Zm5.257,49.875h-3.164V31.259h3.164v36.266ZM70.446,31.259h3.164v21.229h-3.164V31.259Zm4.848,23.94c.169,0,.282,.047,.401,.166l.413,.413h-12.033v-.579h11.219Zm-13.93-12.706v35.728h-1.315V42.494h1.315Zm-23.768,24.799h1.277v.885l-.03-.015c-.383-.192-.833-.192-1.216,0l-.031,.015v-.885Zm-2.067,4.235c.4,.247,.9,.269,1.32,.058l1.386-.696,1.386,.696c.192,.096,.4,.144,.608,.144,.248,0,.494-.068,.712-.202,.4-.247,.644-.684,.644-1.154v-3.082h2.115v10.929h-10.929v-10.929h2.115v3.082c0,.47,.244,.907,.644,
1.154Zm10.881-4.235h2.115v3.082c0,.47,.244,.907,.644,1.154,.217,.134,.464,.202,.712,.202,.208,0,.416-.048,.608-.144l1.386-.696,1.386,.696c.42,.211,.92,.189,1.32-.058,.4-.247,.644-.684,.644-1.154v-3.082h2.115v10.929h-10.929v-10.929Zm4.826,0h1.277v.885l-.031-.015c-.382-.192-.833-.192-1.216,0l-.031,.015v-.885Zm0-17.947h1.277v.885l-.031-.015c-.382-.192-.833-.192-1.216,0l-.031,.015v-.885Zm-2.711,0v3.081c0,.47,.244,.907,.644,1.154,.4,.247,.9,.269,1.32,.058l1.386-.696,1.386,.696c.192,.096,.4,.144,.608,.144,.248,0,.494-.068,.712-.202,.4-.247,.644-.683,.644-1.154v-3.081h2.115v15.236h-10.929v-15.236h2.115Zm-10.929,
4.308h1.277v.885l-.03-.015c-.383-.192-.833-.192-1.216,0l-.031,.015v-.885Zm-4.826,0h2.115v3.081c0,.47,.244,.907,.644,1.154,.4,.247,.9,.269,1.32,.058l1.386-.696,1.386,.696c.192,.096,.4,.144,.608,.144,.248,0,.494-.068,.712-.202,.4-.247,.644-.684,.644-1.154v-3.081h2.115v10.929h-10.929v-10.929Zm-8.814,13.64h1.277v.885l-.03-.015c-.383-.192-.833-.192-1.216,0l-.031,.015v-.885Zm-4.826,0h2.115v3.082c0,
.47,.244,.907,.644,1.154,.4,.247,.9,.269,1.32,.058l1.386-.696,1.386,.696c.192,.096,.4,.144,.608,.144,.248,0,.494-.068,.712-.202,.4-.247,.644-.684
,.644-1.154v-3.082h2.115v10.929h-10.929v-10.929Zm42.234,13.64v4.287h-28.541c-1.528-1.872-3.852-3.071-6.451-3.071s-4.924,1.198-6.452,3.071h-7.192v-4.287H61.364Zm-48.636,6.998h5.717c-.124,.385-.22,.781-.287,1.188h-5.43v-1.188Zm13.643
,8.157c-3.096,0-5.614-2.518-5.614-5.614s2.518-5.614,5.614-5.614,5.614,2.518,5.614,5.614-2.518,5.614-5.614,5.614Zm49.701,0c-3.096,0-5.614-2.518-5.614-5.614s2.518-5.614,5.614-5.614,5.614,2.518,5.614,5.614-2.518,5.614-5.614,5.614Zm17.404-8.493c0,.84-.683,1.523-1.523,1.523h-7.668c-.067-.407-.163-.803-.287-1.188h7.658c.749,0,
1.355-.607,1.355-1.355v-2.873h.464v3.893Zm-17.959-10.617c0,.749-.607,1.355-1.355,1.355h-3.846c-.749,0-1.355-.607-1.355-1.355s.607-1.355,1.355-1.355h3.846c.749,0,1.355,.607,1.355,1.355Zm.556,8.716c-2.636,0-4.78,2.144-4.78,4.78s2.144,4.78,4.78,4.78,4.78-2.144,4.78-4.78-2.144-4.78-4.78-4.78Zm0,6.849c-1.141,0-2.069-.928-2.069-2.069s.928-2.069,2.069-2.069,2.069,.928,2.069,
2.069-.928,2.069-2.069,2.069Zm-49.701-6.849c-2.636,0-4.78,2.144-4.78,4.78s2.144,4.78,4.78,4.78,4.78-2.144,4.78-4.78-2.144-4.78-4.78-4.78Zm0,6.849c-1.141,0-2.069-.928-2.069-2.069s.928-2.069,2.069-2.069,2.069,.928,2.069,2.069-.928,2.069-2.069,2.069ZM51.004,19.969H31.223c-.749,0-1.355,.607-1.355,1.355v3.55c0,.749,.607,1.355,1.355,1.355h19.781c.749,0,1.355-.607,1.355-1.355v-3.55c0-.749-.607-1.355-1.355-1.355Zm-1.355,3.55h-17.07v-.839h17.07v.839Z"/>
<text x="0" y="115" fill="red" font-size="8px" font-weight="bold" font-family="'Helvetica Neue', Helvetica, Arial-Unicode, Arial, Sans-serif"></text>
<text x="0" y="120" fill="red" font-size="5px" font-weight="bold" 
font-family="'Helvetica Neue', Helvetica, Arial-Unicode, Arial, Sans-serif"></text></svg>