<svg xmlns:dc="http://purl.org/dc/elements/1.1/" xmlns:cc="http://creativecommons.org/ns#" width='25px'
 xmlns:rdf="http://www.w3.org/1999/02/22-rdf-syntax-ns#" xmlns:svg="http://www.w3.org/2000/svg" xmlns="http://www.w3.org/2000/svg" xmlns:sodipodi="http://sodipodi.sourceforge.net/DTD/sodipodi-0.dtd" 
 xmlns:inkscape="http://www.inkscape.org/namespaces/inkscape" viewBox="0 0 16.933333 21.1666675" version="1.1" x="0px" y="0px">
 <g transform="translate(0,-280.06665)">
 <path fill="black"  d="m 10.583329,280.85576 v 0.78703 l -1.4355703,-0.99994 c -0.0442,-0.0306 -0.0966,-0.047 -0.15038,-0.047 -0.0544,-3.8e-4 -0.10768,0.016 -0.15244,0.047 l -5.13871,3.57808 c -0.11959,0.0832 -0.14939,0.24748 -0.0667,0.36742 l 0.64078,0.92191 c 0.0835,0.12038 0.24888,0.15003 0.36898,0.0661 l 0.64285,-0.44803 v 3.13934 c 0,0.35287 0.52917,0.35287 0.52917,0 v -3.5078 l 3.17396,-2.21071 3.1755203,2.21123 v 3.50728 c 0,0.35286 0.52917,0.35286 0.52917,0 v -3.13883 l 0.64285,0.44752 c 0.11981,0.0828 0.28403,0.0533 0.36742,-0.0661 l 0.64234,-0.92191 c 0.0827,-0.11994 0.0529,-0.28419 -0.0667,-0.36742 l -1.58587,-1.10433 v -2.26084 c -5.3e-4,-0.14612 -0.1195,-0.26411 -0.26562,-0.26355 h -1.59913 c -0.14904,0.0136 -0.25205,0.12753 -0.25192,0.26355 z m 0.52917,0.26355 h 1.05833 v 1.62884 l -1.05833,-0.73691 z m -2.1151203,0.0646 4.7692203,3.32022 -0.33796,0.48627 -4.2808803,-2.98018 c -0.091,-0.0635 -0.21186,-0.0635 -0.30282,0 l -4.2814,2.98018 -0.33796,-0.48627 z m -1.32447,4.17391 c -0.14611,5.8e-4 -0.2641,0.1195 -0.26354,0.26562 v 2.64428 c -0.0345,0.38438 0.56162,0.38438 0.52709,0 v -2.38073 h 2.1171903 v 2.38073 c 0,0.35312 0.52968,0.35312 0.52968,0 v -2.64428 c 5.29e-4,-0.14632 -0.11774,-0.26532 -0.26407,-0.26562 z m 7.5018703,1.90479 c -0.32109,0 -0.64193,0.12207 -0.88573,0.36587 l -1.55133,1.55133 c -0.25963,0.24937 0.12477,0.63377 0.37414,0.37414 l 1.55132,-1.55133 c 0.28679,-0.28678 0.73694,-0.28678 1.02371,0 0.14249,0.14248 0.19269,0.29733 0.18604,0.47956 -0.007,0.18222 -0.0819,0.39006 -0.21497,0.57877 -0.50574,0.71712 -1.6386,2.35599 -2.24483,3.23391 -0.46477,0.67307 -1.02854,1.00098 -1.77147,1.00098 H 7.1437487 c -0.48177,0 -0.80645,0.20805 -1.05265,0.42529 l -3.52382,-3.52382 c -0.10282,-0.10282 -0.26892,-0.10421 -0.3731,0 l -1.58749999,1.58802 c -0.10398,0.10344 -0.10398,0.27172 0,0.37517 l 4.23436999,4.2323 c 0.10321,0.10259 0.26989,0.10259 0.3731,0 l 1.5875,-1.58802 c 0.1026,-0.10321 0.1026,-0.2699 0,-0.37311 l -0.34003,-0.34003 c 0.17773,-0.16244 0.3535,-0.26665 0.68213,-0.26665 h 4.4979103 c 0.90912,0 1.66838,-0.44997 2.20659,-1.22938 0.60607,-0.87769 1.74037,-2.51887 2.24172,-3.22978 0.18249,-0.25875 0.30088,-0.55654 0.31213,-0.86454 0.0112,-0.30801 -0.0964,-0.62811 -0.34107,-0.87282 -0.2438,-0.2438 -0.56516,-0.36587 -0.88625,-0.36587 z m -9.6185303,1.79989 c -0.98809,0 -1.59957,0.45226 -2.07946,0.91416 -0.25739,0.24454 0.11259,0.62911 0.3669,0.38137 0.44962,-0.43277 0.87649,-0.76636 1.71256,-0.76636 h 5.5562503 c 0.44431,0 0.79375,0.34943 0.79375,0.79375 0,0.44432 -0.34944,0.79375 -0.79375,0.79375 H 8.2020787 c -0.3578,-0.005 -0.3578,0.53423 0,0.52917 h 2.9104203 c 0.72831,0 1.32291,-0.5946 1.32291,-1.32292 0,-0.72832 -0.5946,-1.32292 -1.32291,-1.32292 z m -3.17449,1.69757 3.85972,3.8592 -1.21285,1.21285 -3.85971,-3.8592 z"/></g>
</svg>